<svg version="1.0" xmlns="http://www.w3.org/2000/svg" width="933.333" height="933.333" viewBox="0 0 700 700"><path d="M547.5 30.8c-13.2 7.6-25.1 14.5-26.5 15.3-1.4.9-10.4 6.2-20 11.9-32.6 19.2-85 53-111.2 71.7-3.7 2.6-8.6 6.1-11 7.8-12.1 8.4-49.8 37.4-63.3 48.6-74.5 62-125.3 121.3-155.3 181.4-16 32-25.6 62.4-30.6 97.5-1 7.1-2 23.8-2 34 .1 19.3 1.7 34.4 5.9 56 .9 4.1 1.7 8.5 1.9 9.7.9 4.3 7.8 27 10.8 35.3 7.7 21.1 20.3 47.3 34.1 70.7l7.2 12.2 26-.4c14.3-.2 28-.6 30.5-.9 9.8-1 17.6-2 26-3 7.2-1 27.5-5.2 37-7.8 4.1-1.1 8.4-2.2 9.5-2.5 5.3-1.4 23.1-8 32-11.8 32.3-14 59.7-32.7 85-58 9.4-9.4 16-16.7 19.5-21.4 1.4-1.8 3.2-4 4.1-4.9 4.7-5 22-30.9 31.1-46.7 6.1-10.7 18.4-36.6 24.6-52 5.7-14.2 16.7-45.4 18.2-52 .4-1.6 2.6-9.5 4.8-17.5 3.3-11.9 6.8-26.2 8.7-35 3-14 4.2-19.9 5.5-27 .6-3 1.2-6.4 1.4-7.5.2-1.1.7-4 1.1-6.5.4-2.5.9-5.4 1.1-6.5.3-1.1.6-3.6.9-5.5.3-1.9.7-4.6.9-6 .3-1.4.8-4.5 1.1-7 .3-2.5 1-7.2 1.5-10.5s1.2-8.3 1.5-11c.7-5.9 1.3-10.7 2-15.5.2-1.9.7-6.2 1-9.5.6-6.7 1.1-11.3 1.9-19.5.4-3 .8-8.4 1.1-12 .3-3.6.7-9 1-12 .9-10.2 1.6-19.5 1.9-27.5.2-4.4.7-13.9 1.1-21 .4-7.2.8-17.1 1.1-22 .4-10.4 1.5-125.5 1.1-125.5-.1 0-11 6.2-24.2 13.8z"/></svg>